# Blender3D v249 OBJ File: LifeSupportRoom.blend
# www.blender3d.org
mtllib Ratchet.mtl
v 0.000000 -0.153453 0.090637
v 0.000000 -0.153453 -0.064995
v 0.000000 0.225567 -0.064995
v 0.000000 0.064484 0.090638
v 0.000000 0.064484 -0.064995
v 0.000000 0.064484 -0.513838
v 0.064620 0.064484 -0.513838
v -0.064620 0.064484 -0.513838
v 0.000000 0.225567 -0.513838
v 0.064620 0.174020 -0.064995
v -0.064620 0.174020 -0.064995
v 0.000000 0.174020 0.090638
v 0.000000 0.174020 -0.064995
v 0.000000 0.174020 -0.513838
v 0.064620 0.174020 -0.513838
v -0.064620 0.174020 -0.513838
v 0.048312 -0.153453 -0.064995
v -0.048312 -0.153453 -0.064995
v 0.048312 0.064484 -0.064995
v -0.048312 0.064484 -0.064995
v 0.048312 0.064484 -0.513838
v -0.048312 0.064484 -0.513838
v 0.048312 0.174020 -0.513838
v -0.048312 0.174020 -0.513838
v 0.048312 0.225567 -0.064995
v -0.048312 0.225567 -0.064995
v 0.048312 0.225567 -0.513838
v -0.048312 0.225567 -0.513838
v 0.000000 -0.153453 0.036291
v 0.000000 0.225567 0.036291
v 0.064620 0.064484 0.036291
v -0.064620 0.064484 0.036291
v 0.064620 0.174020 0.036291
v -0.064620 0.174020 0.036291
v 0.048312 -0.153453 0.036291
v -0.048312 -0.153453 0.036291
v 0.048312 -0.153453 0.090638
v -0.048312 -0.153453 0.090638
v 0.048312 0.064484 0.090638
v -0.048312 0.064484 0.090638
v 0.048312 0.174020 0.090638
v -0.048312 0.174020 0.090638
v 0.064620 -0.153453 0.036291
v -0.064620 -0.153453 0.036291
v 0.000000 -0.153453 -0.020159
v 0.000000 0.225567 -0.020159
v 0.064620 0.174020 -0.020159
v -0.064620 0.174020 -0.020159
v 0.048312 0.225567 -0.020159
v -0.048312 0.225567 -0.020159
v 0.064620 -0.153453 -0.020159
v -0.064620 -0.153453 -0.020159
v 0.064620 0.064484 -0.020159
v -0.064620 0.064484 -0.020159
v 0.064620 0.064484 -0.064995
v -0.064620 0.064484 -0.064995
v 0.048312 -0.153453 -0.020159
v -0.048312 -0.153453 -0.020159
v 0.024003 0.180632 -0.593012
v -0.024003 0.180632 -0.593012
v 0.038877 0.134854 -0.593012
v -0.038877 0.134854 -0.593012
v 0.000000 0.106562 -0.593012
v 0.024003 0.180632 -0.511122
v -0.024003 0.180632 -0.511122
v 0.038877 0.134854 -0.511122
v -0.038877 0.134854 -0.511122
v 0.000000 0.106562 -0.511122
v 0.000000 0.147507 -0.511122
v 0.000000 0.180632 -0.593012
v 0.000000 0.180632 -0.511122
v 0.000000 0.176930 -0.593012
v 0.000000 0.111823 -0.593012
v 0.034288 0.136692 -0.593012
v -0.034288 0.136692 -0.593012
v 0.021213 0.176930 -0.593012
v -0.021213 0.176930 -0.593012
v 0.021213 0.176930 -0.535733
v -0.021213 0.176930 -0.535733
v 0.034288 0.136692 -0.535733
v -0.034288 0.136692 -0.535733
v 0.000000 0.111823 -0.535733
v 0.000000 0.147813 -0.535733
v 0.000000 0.176930 -0.535733
v 0.048312 0.225567 0.036291
v -0.048312 0.225567 0.036291
v 0.000000 0.225567 0.090638
vn -0.000001 0.000000 1.000000
vn 0.000001 0.000000 1.000000
vn 0.000000 0.000000 -1.000000
vn 0.000000 1.000000 0.000000
vn 0.000000 -1.000000 0.000000
vn 0.000000 0.000000 1.000000
vn 0.916644 0.290006 0.275065
vn -0.916644 0.290006 0.275065
vn 0.612144 0.573727 0.544167
vn -0.612144 0.573727 0.544167
vn 0.587126 0.809496 0.000000
vn -0.587126 0.809496 0.000000
vn 0.951057 -0.309017 0.000000
vn -0.951057 -0.309017 0.000000
vn -0.000001 1.000000 -0.000000
vn 0.000000 1.000000 -0.000001
vn 0.000001 1.000000 -0.000000
vn -0.588418 -0.808557 0.000000
vn 0.588418 -0.808557 0.000000
vn -0.951056 0.309017 -0.000000
vn -0.951057 0.309017 -0.000000
vn 0.951056 0.309017 -0.000000
vn 0.951057 0.309017 -0.000000
vn -0.939765 0.000000 -0.341821
vn 0.939765 0.000000 -0.341821
vn -0.953421 0.301642 0.000001
vn 0.953421 0.301642 0.000001
vn -0.953421 0.301642 0.000002
vn 0.953421 0.301642 0.000002
vn -1.000000 0.000000 0.000002
vn -1.000000 -0.000000 0.000001
vn 1.000000 0.000000 0.000002
vn 1.000000 -0.000000 0.000001
vn -1.000000 -0.000000 0.000000
vn 1.000000 -0.000000 0.000000
vn -0.957806 0.000000 0.287417
vn 0.957806 0.000000 0.287417
vn -0.957806 0.000000 0.287416
vn 0.957806 0.000000 0.287416
vn -0.953421 0.301642 -0.000000
vn 0.953421 0.301642 -0.000000
vn -0.000001 0.000000 -1.000000
vn 0.000001 0.000000 -1.000000
usemtl Dirt
s off
f 12//1 41//1 87//1
f 87//2 42//2 12//2
f 15//3 23//3 27//3
f 28//3 24//3 16//3
f 30//4 87//4 85//4
f 86//4 87//4 30//4
f 37//5 35//5 43//5
f 44//5 36//5 38//5
f 53//5 19//5 55//5
f 56//5 20//5 54//5
f 17//5 51//5 57//5
f 58//5 52//5 18//5
usemtl Nossel
f 69//6 66//6 64//6
f 65//6 67//6 69//6
f 69//6 68//6 66//6
f 67//6 68//6 69//6
f 64//6 71//6 69//6
f 69//6 71//6 65//6
f 83//3 78//3 80//3
f 81//3 79//3 83//3
f 83//3 80//3 82//3
f 82//3 81//3 83//3
f 84//3 78//3 83//3
f 83//3 79//3 84//3
usemtl Red
f 41//7 33//7 85//7
f 86//8 34//8 42//8
f 41//9 85//9 87//9
f 87//10 86//10 42//10
usemtl Nossel
f 79//5 77//5 72//5
f 79//5 72//5 84//5
f 72//5 76//5 78//5
f 72//5 78//5 84//5
f 82//11 73//11 75//11
f 82//11 75//11 81//11
f 74//12 73//12 82//12
f 74//12 82//12 80//12
f 81//13 75//13 77//13
f 81//13 77//13 79//13
f 76//14 74//14 80//14
f 76//14 80//14 78//14
f 75//3 62//3 60//3
f 75//3 60//3 77//3
f 59//3 61//3 74//3
f 59//3 74//3 76//3
f 73//3 63//3 62//3
f 73//3 62//3 75//3
f 61//3 63//3 73//3
f 61//3 73//3 74//3
f 77//3 60//3 70//3
f 77//3 70//3 72//3
f 70//3 59//3 76//3
f 70//3 76//3 72//3
f 60//15 65//15 71//15
f 60//16 71//16 70//16
f 71//17 64//17 59//17
f 71//16 59//16 70//16
f 68//18 67//18 62//18
f 68//18 62//18 63//18
f 61//19 66//19 68//19
f 61//19 68//19 63//19
f 67//20 65//20 60//20
f 67//21 60//21 62//21
f 59//22 64//22 66//22
f 59//23 66//23 61//23
usemtl Dirt
f 54//24 20//24 18//24
f 54//24 18//24 52//24
f 17//25 19//25 53//25
f 17//25 53//25 51//25
usemtl Red
f 26//26 11//26 48//26
f 26//26 48//26 50//26
f 47//27 10//27 25//27
f 47//27 25//27 49//27
f 50//28 48//28 34//28
f 50//28 34//28 86//28
f 33//29 47//29 49//29
f 33//29 49//29 85//29
usemtl Dirt
f 86//4 30//4 46//4
f 86//4 46//4 50//4
f 46//4 30//4 85//4
f 46//4 85//4 49//4
f 50//4 46//4 3//4
f 50//4 3//4 26//4
f 3//4 46//4 49//4
f 3//4 49//4 25//4
f 36//5 44//5 52//5
f 36//5 52//5 58//5
f 51//5 43//5 35//5
f 51//5 35//5 57//5
f 29//5 36//5 58//5
f 29//5 58//5 45//5
f 57//5 35//5 29//5
f 57//5 29//5 45//5
f 45//5 58//5 18//5
f 45//5 18//5 2//5
f 17//5 57//5 45//5
f 17//5 45//5 2//5
f 32//30 34//30 48//30
f 32//31 48//31 54//31
f 47//32 33//32 31//32
f 47//33 31//33 53//33
f 54//31 48//31 11//31
f 54//31 11//31 56//31
f 10//33 47//33 53//33
f 10//33 53//33 55//33
f 44//31 32//31 54//31
f 44//34 54//34 52//34
f 53//33 31//33 43//33
f 53//35 43//35 51//35
f 42//36 34//36 32//36
f 42//36 32//36 40//36
f 31//37 33//37 41//37
f 31//37 41//37 39//37
f 40//36 32//36 44//36
f 40//38 44//38 38//38
f 43//37 31//37 39//37
f 43//39 39//39 37//39
f 1//5 38//5 36//5
f 1//5 36//5 29//5
f 1//5 29//5 35//5
f 1//5 35//5 37//5
usemtl Red
f 28//40 16//40 11//40
f 28//40 11//40 26//40
f 10//41 15//41 27//41
f 10//41 27//41 25//41
usemtl Dirt
f 24//42 28//42 9//42
f 24//42 9//42 14//42
f 9//43 27//43 23//43
f 9//43 23//43 14//43
f 8//3 16//3 24//3
f 8//3 24//3 22//3
f 23//3 15//3 7//3
f 23//3 7//3 21//3
f 22//42 24//42 14//42
f 22//42 14//42 6//42
f 14//43 23//43 21//43
f 14//43 21//43 6//43
f 42//2 40//2 4//2
f 42//2 4//2 12//2
f 4//1 39//1 41//1
f 4//1 41//1 12//1
f 28//4 26//4 3//4
f 28//4 3//4 9//4
f 3//4 25//4 27//4
f 3//4 27//4 9//4
f 6//5 5//5 20//5
f 6//5 20//5 22//5
f 19//5 5//5 6//5
f 19//5 6//5 21//5
f 22//5 20//5 56//5
f 22//5 56//5 8//5
f 55//5 19//5 21//5
f 55//5 21//5 7//5
f 18//42 20//42 5//42
f 18//3 5//3 2//3
f 5//43 19//43 17//43
f 5//3 17//3 2//3
f 1//2 4//2 40//2
f 1//6 40//6 38//6
f 1//6 37//6 39//6
f 1//1 39//1 4//1
f 8//34 56//34 11//34
f 8//34 11//34 16//34
f 10//35 55//35 7//35
f 10//35 7//35 15//35
usemtl Nossel
f 13//34 3//34 9//34
f 13//34 9//34 14//34
f 5//34 13//34 14//34
f 5//34 14//34 6//34
