# Blender3D v249 OBJ File: LifeSupportRoom.blend
# www.blender3d.org
mtllib DarkMatterCell.mtl
v 0.206158 -1.229237 -0.206158
v 0.206158 -1.229237 0.206158
v -0.206158 -1.229237 0.206158
v -0.206158 -1.229237 -0.206158
v 0.206158 1.239007 -0.206158
v 0.206158 1.239007 0.206158
v -0.206158 1.239007 0.206158
v -0.206158 1.239007 -0.206158
v 0.130571 1.392238 -0.130571
v -0.130571 1.392238 -0.130571
v -0.130571 1.392238 0.130571
v 0.130571 1.392238 0.130571
v -0.136146 -1.390951 0.136146
v -0.136146 -1.390951 -0.136146
v 0.136146 -1.390951 -0.136146
v 0.136146 -1.390951 0.136146
v 0.206158 -1.130508 0.206158
v 0.206158 -1.130508 -0.206158
v -0.206158 -1.130508 0.206158
v -0.206158 -1.130508 -0.206158
v 0.206158 1.120532 0.206158
v 0.206158 1.120532 -0.206158
v -0.206158 1.120532 0.206158
v -0.206158 1.120532 -0.206158
v -0.183857 1.120490 -0.183857
v -0.183857 1.120490 0.183857
v 0.183857 1.120490 -0.183857
v 0.183857 1.120490 0.183857
v -0.183857 -1.130545 -0.183857
v -0.183857 -1.130545 0.183857
v 0.183857 -1.130545 -0.183857
v 0.183857 -1.130545 0.183857
vn 0.000000 -0.000000 -1.000000
vn -1.000000 -0.000000 -0.000000
vn -0.000000 -0.000000 1.000000
vn 1.000000 -0.000000 0.000001
vn 1.000000 0.000000 0.000000
vn -0.001684 0.999999 0.000000
vn 0.000000 0.999999 -0.001684
vn 0.001684 0.999999 0.000000
vn -0.000000 0.999999 0.001684
vn 0.001871 -0.999998 0.000000
vn -0.000000 -0.999998 0.001871
vn -0.001871 -0.999998 -0.000000
vn 0.000000 -0.999998 -0.001871
vn 0.000000 -1.000000 0.000000
vn -0.000000 -0.397301 0.917689
vn 0.917689 -0.397300 0.000000
vn 0.000000 -0.397300 -0.917689
vn 0.000000 -0.397301 -0.917689
vn -0.917689 -0.397300 -0.000000
vn 0.000000 1.000000 0.000000
vn 0.896822 0.442392 0.000000
vn -0.000000 0.442392 0.896822
vn -0.896822 0.442392 -0.000000
vn 0.000000 0.442392 -0.896822
g Cube.006_Cube.007_Blue
usemtl Blue
s off
f 27//1 31//1 29//1
f 27//1 29//1 25//1
f 30//2 26//2 25//2
f 30//2 25//2 29//2
f 32//3 28//3 26//3
f 32//3 26//3 30//3
f 31//4 27//4 28//4
f 31//5 28//5 32//5
f 17//6 18//6 31//6
f 17//6 31//6 32//6
f 19//7 17//7 32//7
f 19//7 32//7 30//7
f 20//8 19//8 30//8
f 20//8 30//8 29//8
f 18//9 20//9 29//9
f 18//9 29//9 31//9
f 22//10 21//10 28//10
f 22//10 28//10 27//10
f 21//11 23//11 26//11
f 21//11 26//11 28//11
f 23//12 24//12 25//12
f 23//12 25//12 26//12
f 24//13 22//13 27//13
f 24//13 27//13 25//13
g Cube.006_Cube.007_Material
usemtl Material
f 5//1 22//1 24//1
f 5//1 24//1 8//1
f 23//2 7//2 8//2
f 23//2 8//2 24//2
f 21//3 6//3 7//3
f 21//3 7//3 23//3
f 22//4 5//4 6//4
f 22//4 6//4 21//4
f 18//1 1//1 4//1
f 18//1 4//1 20//1
f 3//2 19//2 20//2
f 3//2 20//2 4//2
f 2//3 17//3 19//3
f 2//3 19//3 3//3
f 1//5 18//5 17//5
f 1//5 17//5 2//5
f 15//14 16//14 13//14
f 15//14 13//14 14//14
f 2//15 3//15 13//15
f 2//15 13//15 16//15
f 1//16 2//16 16//16
f 1//16 16//16 15//16
f 4//17 1//17 15//17
f 4//18 15//18 14//18
f 3//19 4//19 14//19
f 3//19 14//19 13//19
f 9//20 10//20 11//20
f 9//20 11//20 12//20
f 6//21 5//21 9//21
f 6//21 9//21 12//21
f 7//22 6//22 12//22
f 7//22 12//22 11//22
f 8//23 7//23 11//23
f 8//23 11//23 10//23
f 5//24 8//24 10//24
f 5//24 10//24 9//24
